solid OpenSCAD_Model
  facet normal 1 -0 0
    outer loop
      vertex 13 0 1
      vertex 13 20 0
      vertex 13 20 1
    endloop
  endfacet
  facet normal 1 0 0
    outer loop
      vertex 13 20 0
      vertex 13 0 1
      vertex 13 0 0
    endloop
  endfacet
  facet normal -0 0 1
    outer loop
      vertex 0 20 1
      vertex 1.2 0 1
      vertex 1.2 20 1
    endloop
  endfacet
  facet normal 0 0 1
    outer loop
      vertex 1.2 0 1
      vertex 0 20 1
      vertex 0 0 1
    endloop
  endfacet
  facet normal -0 0 1
    outer loop
      vertex 11.74 20 1
      vertex 13 0 1
      vertex 13 20 1
    endloop
  endfacet
  facet normal 0 0 1
    outer loop
      vertex 13 0 1
      vertex 11.74 20 1
      vertex 11.74 0 1
    endloop
  endfacet
  facet normal 0 0 -1
    outer loop
      vertex 11.12 1.24 0
      vertex 13 0 0
      vertex 11.12 0.62 0
    endloop
  endfacet
  facet normal 0 0 -1
    outer loop
      vertex 13 0 0
      vertex 10.5 0.62 0
      vertex 11.12 0.62 0
    endloop
  endfacet
  facet normal 0 0 -1
    outer loop
      vertex 10.5 0.62 0
      vertex 9.88 0.62 0
      vertex 10.5 1.24 0
    endloop
  endfacet
  facet normal 0 0 -1
    outer loop
      vertex 13 0 0
      vertex 9.88 0.62 0
      vertex 10.5 0.62 0
    endloop
  endfacet
  facet normal 0 0 -1
    outer loop
      vertex 13 0 0
      vertex 9.26 0.62 0
      vertex 9.88 0.62 0
    endloop
  endfacet
  facet normal 0 0 -1
    outer loop
      vertex 9.26 0.62 0
      vertex 8.64 0.62 0
      vertex 9.26 1.24 0
    endloop
  endfacet
  facet normal 0 0 -1
    outer loop
      vertex 13 0 0
      vertex 8.64 0.62 0
      vertex 9.26 0.62 0
    endloop
  endfacet
  facet normal 0 0 -1
    outer loop
      vertex 13 0 0
      vertex 8.02 0.62 0
      vertex 8.64 0.62 0
    endloop
  endfacet
  facet normal 0 0 -1
    outer loop
      vertex 8.02 0.62 0
      vertex 7.4 0.62 0
      vertex 8.02 1.24 0
    endloop
  endfacet
  facet normal 0 0 -1
    outer loop
      vertex 13 0 0
      vertex 7.4 0.62 0
      vertex 8.02 0.62 0
    endloop
  endfacet
  facet normal 0 0 -1
    outer loop
      vertex 13 0 0
      vertex 6.78 0.62 0
      vertex 7.4 0.62 0
    endloop
  endfacet
  facet normal 0 0 -1
    outer loop
      vertex 6.78 0.62 0
      vertex 6.16 0.62 0
      vertex 6.78 1.24 0
    endloop
  endfacet
  facet normal 0 0 -1
    outer loop
      vertex 13 0 0
      vertex 6.16 0.62 0
      vertex 6.78 0.62 0
    endloop
  endfacet
  facet normal 0 0 -1
    outer loop
      vertex 0 0 0
      vertex 6.16 0.62 0
      vertex 13 0 0
    endloop
  endfacet
  facet normal 0 0 -1
    outer loop
      vertex 5.54 0.62 0
      vertex 4.92 0.62 0
      vertex 5.54 1.24 0
    endloop
  endfacet
  facet normal -0 0 -1
    outer loop
      vertex 6.16 0.62 0
      vertex 0 0 0
      vertex 5.54 0.62 0
    endloop
  endfacet
  facet normal -0 0 -1
    outer loop
      vertex 5.54 0.62 0
      vertex 0 0 0
      vertex 4.92 0.62 0
    endloop
  endfacet
  facet normal 0 0 -1
    outer loop
      vertex 4.3 0.62 0
      vertex 3.68 0.62 0
      vertex 4.3 1.24 0
    endloop
  endfacet
  facet normal -0 0 -1
    outer loop
      vertex 4.92 0.62 0
      vertex 0 0 0
      vertex 4.3 0.62 0
    endloop
  endfacet
  facet normal -0 0 -1
    outer loop
      vertex 4.3 0.62 0
      vertex 0 0 0
      vertex 3.68 0.62 0
    endloop
  endfacet
  facet normal 0 0 -1
    outer loop
      vertex 3.06 0.62 0
      vertex 2.44 0.62 0
      vertex 3.06 1.24 0
    endloop
  endfacet
  facet normal -0 0 -1
    outer loop
      vertex 3.68 0.62 0
      vertex 0 0 0
      vertex 3.06 0.62 0
    endloop
  endfacet
  facet normal -0 0 -1
    outer loop
      vertex 3.06 0.62 0
      vertex 0 0 0
      vertex 2.44 0.62 0
    endloop
  endfacet
  facet normal -0 0 -1
    outer loop
      vertex 1.82 0.62 0
      vertex 0 0 0
      vertex 1.82 1.24 0
    endloop
  endfacet
  facet normal -0 0 -1
    outer loop
      vertex 2.44 0.62 0
      vertex 0 0 0
      vertex 1.82 0.62 0
    endloop
  endfacet
  facet normal 0 0 -1
    outer loop
      vertex 13 0 0
      vertex 11.12 1.24 0
      vertex 13 20 0
    endloop
  endfacet
  facet normal 0 0 -1
    outer loop
      vertex 10.5 1.24 0
      vertex 13 20 0
      vertex 11.12 1.24 0
    endloop
  endfacet
  facet normal 0 0 -1
    outer loop
      vertex 9.88 1.24 0
      vertex 10.5 1.24 0
      vertex 9.88 0.62 0
    endloop
  endfacet
  facet normal 0 0 -1
    outer loop
      vertex 10.5 1.24 0
      vertex 9.88 1.24 0
      vertex 13 20 0
    endloop
  endfacet
  facet normal 0 0 -1
    outer loop
      vertex 9.26 1.24 0
      vertex 13 20 0
      vertex 9.88 1.24 0
    endloop
  endfacet
  facet normal 0 0 -1
    outer loop
      vertex 8.64 1.24 0
      vertex 9.26 1.24 0
      vertex 8.64 0.62 0
    endloop
  endfacet
  facet normal 0 0 -1
    outer loop
      vertex 9.26 1.24 0
      vertex 8.64 1.24 0
      vertex 13 20 0
    endloop
  endfacet
  facet normal 0 0 -1
    outer loop
      vertex 8.02 1.24 0
      vertex 13 20 0
      vertex 8.64 1.24 0
    endloop
  endfacet
  facet normal 0 0 -1
    outer loop
      vertex 7.4 1.24 0
      vertex 8.02 1.24 0
      vertex 7.4 0.62 0
    endloop
  endfacet
  facet normal 0 0 -1
    outer loop
      vertex 8.02 1.24 0
      vertex 7.4 1.24 0
      vertex 13 20 0
    endloop
  endfacet
  facet normal 0 0 -1
    outer loop
      vertex 6.78 1.24 0
      vertex 13 20 0
      vertex 7.4 1.24 0
    endloop
  endfacet
  facet normal 0 0 -1
    outer loop
      vertex 6.16 1.24 0
      vertex 6.78 1.24 0
      vertex 6.16 0.62 0
    endloop
  endfacet
  facet normal 0 0 -1
    outer loop
      vertex 6.78 1.24 0
      vertex 6.16 1.24 0
      vertex 13 20 0
    endloop
  endfacet
  facet normal 0 0 -1
    outer loop
      vertex 0 20 0
      vertex 6.16 1.24 0
      vertex 5.54 1.24 0
    endloop
  endfacet
  facet normal 0 0 -1
    outer loop
      vertex 4.92 1.24 0
      vertex 5.54 1.24 0
      vertex 4.92 0.62 0
    endloop
  endfacet
  facet normal 0 0 -1
    outer loop
      vertex 0 20 0
      vertex 5.54 1.24 0
      vertex 4.92 1.24 0
    endloop
  endfacet
  facet normal 0 0 -1
    outer loop
      vertex 0 20 0
      vertex 4.92 1.24 0
      vertex 4.3 1.24 0
    endloop
  endfacet
  facet normal 0 0 -1
    outer loop
      vertex 3.68 1.24 0
      vertex 4.3 1.24 0
      vertex 3.68 0.62 0
    endloop
  endfacet
  facet normal 0 0 -1
    outer loop
      vertex 0 20 0
      vertex 4.3 1.24 0
      vertex 3.68 1.24 0
    endloop
  endfacet
  facet normal 0 0 -1
    outer loop
      vertex 0 20 0
      vertex 3.68 1.24 0
      vertex 3.06 1.24 0
    endloop
  endfacet
  facet normal 0 0 -1
    outer loop
      vertex 2.44 1.24 0
      vertex 3.06 1.24 0
      vertex 2.44 0.62 0
    endloop
  endfacet
  facet normal 0 0 -1
    outer loop
      vertex 0 20 0
      vertex 3.06 1.24 0
      vertex 2.44 1.24 0
    endloop
  endfacet
  facet normal 0 0 -1
    outer loop
      vertex 0 20 0
      vertex 2.44 1.24 0
      vertex 1.82 1.24 0
    endloop
  endfacet
  facet normal 0 0 -1
    outer loop
      vertex 0 20 0
      vertex 1.82 1.24 0
      vertex 0 0 0
    endloop
  endfacet
  facet normal 0 0 -1
    outer loop
      vertex 6.16 1.24 0
      vertex 0 20 0
      vertex 13 20 0
    endloop
  endfacet
  facet normal -1 0 0
    outer loop
      vertex 0 0 0
      vertex 0 20 1
      vertex 0 20 0
    endloop
  endfacet
  facet normal -1 -0 0
    outer loop
      vertex 0 20 1
      vertex 0 0 0
      vertex 0 0 1
    endloop
  endfacet
  facet normal 0 1 0
    outer loop
      vertex 11.74 20 2.2
      vertex 11.12 20 1.5
      vertex 11.12 20 2.2
    endloop
  endfacet
  facet normal 0 1 0
    outer loop
      vertex 11.74 20 1
      vertex 10.5 20 1.5
      vertex 11.12 20 1.5
    endloop
  endfacet
  facet normal 0 1 0
    outer loop
      vertex 10.5 20 1.5
      vertex 11.74 20 1
      vertex 9.88 20 1.5
    endloop
  endfacet
  facet normal 0 1 0
    outer loop
      vertex 13 20 0
      vertex 9.88 20 1.5
      vertex 11.74 20 1
    endloop
  endfacet
  facet normal 0 1 0
    outer loop
      vertex 9.88 20 1.5
      vertex 13 20 0
      vertex 9.26 20 1.5
    endloop
  endfacet
  facet normal 0 1 0
    outer loop
      vertex 9.26 20 1.5
      vertex 13 20 0
      vertex 8.64 20 1.5
    endloop
  endfacet
  facet normal 0 1 0
    outer loop
      vertex 8.64 20 1.5
      vertex 13 20 0
      vertex 8.02 20 1.5
    endloop
  endfacet
  facet normal 0 1 0
    outer loop
      vertex 8.02 20 1.5
      vertex 13 20 0
      vertex 7.4 20 1.5
    endloop
  endfacet
  facet normal 0 1 0
    outer loop
      vertex 7.4 20 1.5
      vertex 13 20 0
      vertex 6.78 20 1.5
    endloop
  endfacet
  facet normal 0 1 0
    outer loop
      vertex 6.78 20 1.5
      vertex 13 20 0
      vertex 6.16 20 1.5
    endloop
  endfacet
  facet normal 0 1 0
    outer loop
      vertex 0 20 0
      vertex 6.16 20 1.5
      vertex 13 20 0
    endloop
  endfacet
  facet normal 0 1 0
    outer loop
      vertex 6.16 20 1.5
      vertex 0 20 0
      vertex 5.54 20 1.5
    endloop
  endfacet
  facet normal 0 1 0
    outer loop
      vertex 5.54 20 1.5
      vertex 0 20 0
      vertex 4.92 20 1.5
    endloop
  endfacet
  facet normal 0 1 0
    outer loop
      vertex 4.92 20 1.5
      vertex 0 20 0
      vertex 4.3 20 1.5
    endloop
  endfacet
  facet normal 0 1 0
    outer loop
      vertex 4.3 20 1.5
      vertex 0 20 0
      vertex 3.68 20 1.5
    endloop
  endfacet
  facet normal 0 1 0
    outer loop
      vertex 3.68 20 1.5
      vertex 0 20 0
      vertex 3.06 20 1.5
    endloop
  endfacet
  facet normal 0 1 -0
    outer loop
      vertex 11.74 20 1
      vertex 11.12 20 1.5
      vertex 11.74 20 2.2
    endloop
  endfacet
  facet normal 0 1 -0
    outer loop
      vertex 10.5 20 1.5
      vertex 9.88 20 2.2
      vertex 10.5 20 2.2
    endloop
  endfacet
  facet normal 0 1 0
    outer loop
      vertex 9.88 20 2.2
      vertex 10.5 20 1.5
      vertex 9.88 20 1.5
    endloop
  endfacet
  facet normal 0 1 -0
    outer loop
      vertex 9.26 20 1.5
      vertex 8.64 20 2.2
      vertex 9.26 20 2.2
    endloop
  endfacet
  facet normal 0 1 0
    outer loop
      vertex 8.64 20 2.2
      vertex 9.26 20 1.5
      vertex 8.64 20 1.5
    endloop
  endfacet
  facet normal 0 1 -0
    outer loop
      vertex 8.02 20 1.5
      vertex 7.4 20 2.2
      vertex 8.02 20 2.2
    endloop
  endfacet
  facet normal 0 1 0
    outer loop
      vertex 7.4 20 2.2
      vertex 8.02 20 1.5
      vertex 7.4 20 1.5
    endloop
  endfacet
  facet normal 0 1 -0
    outer loop
      vertex 6.78 20 1.5
      vertex 6.16 20 2.2
      vertex 6.78 20 2.2
    endloop
  endfacet
  facet normal 0 1 0
    outer loop
      vertex 6.16 20 2.2
      vertex 6.78 20 1.5
      vertex 6.16 20 1.5
    endloop
  endfacet
  facet normal 0 1 -0
    outer loop
      vertex 5.54 20 1.5
      vertex 4.92 20 2.2
      vertex 5.54 20 2.2
    endloop
  endfacet
  facet normal 0 1 0
    outer loop
      vertex 4.92 20 2.2
      vertex 5.54 20 1.5
      vertex 4.92 20 1.5
    endloop
  endfacet
  facet normal 0 1 -0
    outer loop
      vertex 4.3 20 1.5
      vertex 3.68 20 2.2
      vertex 4.3 20 2.2
    endloop
  endfacet
  facet normal 0 1 0
    outer loop
      vertex 3.68 20 2.2
      vertex 4.3 20 1.5
      vertex 3.68 20 1.5
    endloop
  endfacet
  facet normal 0 1 -0
    outer loop
      vertex 3.06 20 1.5
      vertex 2.44 20 2.2
      vertex 3.06 20 2.2
    endloop
  endfacet
  facet normal 0 1 0
    outer loop
      vertex 2.44 20 2.2
      vertex 3.06 20 1.5
      vertex 2.44 20 1.5
    endloop
  endfacet
  facet normal 0 1 -0
    outer loop
      vertex 1.82 20 1.5
      vertex 1.2 20 2.2
      vertex 1.82 20 2.2
    endloop
  endfacet
  facet normal 0 1 0
    outer loop
      vertex 1.82 20 1.5
      vertex 1.2 20 1
      vertex 1.2 20 2.2
    endloop
  endfacet
  facet normal 0 1 0
    outer loop
      vertex 2.44 20 1.5
      vertex 1.2 20 1
      vertex 1.82 20 1.5
    endloop
  endfacet
  facet normal 0 1 -0
    outer loop
      vertex 13 20 0
      vertex 11.74 20 1
      vertex 13 20 1
    endloop
  endfacet
  facet normal -0 1 0
    outer loop
      vertex 1.2 20 1
      vertex 3.06 20 1.5
      vertex 0 20 0
    endloop
  endfacet
  facet normal 0 1 0
    outer loop
      vertex 3.06 20 1.5
      vertex 1.2 20 1
      vertex 2.44 20 1.5
    endloop
  endfacet
  facet normal 0 1 0
    outer loop
      vertex 1.2 20 1
      vertex 0 20 0
      vertex 0 20 1
    endloop
  endfacet
  facet normal 0 -1 0
    outer loop
      vertex 1.2 0 2.2
      vertex 1.82 0 1.5
      vertex 1.82 0 2.2
    endloop
  endfacet
  facet normal 0 -1 0
    outer loop
      vertex 1.2 0 1
      vertex 2.44 0 1.5
      vertex 1.82 0 1.5
    endloop
  endfacet
  facet normal 0 -1 -0
    outer loop
      vertex 2.44 0 1.5
      vertex 1.2 0 1
      vertex 3.06 0 1.5
    endloop
  endfacet
  facet normal 0 -1 0
    outer loop
      vertex 0 0 0
      vertex 3.06 0 1.5
      vertex 1.2 0 1
    endloop
  endfacet
  facet normal 0 -1 -0
    outer loop
      vertex 3.06 0 1.5
      vertex 0 0 0
      vertex 3.68 0 1.5
    endloop
  endfacet
  facet normal 0 -1 -0
    outer loop
      vertex 3.68 0 1.5
      vertex 0 0 0
      vertex 4.3 0 1.5
    endloop
  endfacet
  facet normal 0 -1 -0
    outer loop
      vertex 4.3 0 1.5
      vertex 0 0 0
      vertex 4.92 0 1.5
    endloop
  endfacet
  facet normal 0 -1 -0
    outer loop
      vertex 4.92 0 1.5
      vertex 0 0 0
      vertex 5.54 0 1.5
    endloop
  endfacet
  facet normal 0 -1 -0
    outer loop
      vertex 5.54 0 1.5
      vertex 0 0 0
      vertex 6.16 0 1.5
    endloop
  endfacet
  facet normal 0 -1 -0
    outer loop
      vertex 6.16 0 1.5
      vertex 0 0 0
      vertex 6.78 0 1.5
    endloop
  endfacet
  facet normal 0 -1 0
    outer loop
      vertex 13 0 0
      vertex 6.78 0 1.5
      vertex 0 0 0
    endloop
  endfacet
  facet normal 0 -1 0
    outer loop
      vertex 6.78 0 1.5
      vertex 13 0 0
      vertex 7.4 0 1.5
    endloop
  endfacet
  facet normal 0 -1 0
    outer loop
      vertex 7.4 0 1.5
      vertex 13 0 0
      vertex 8.02 0 1.5
    endloop
  endfacet
  facet normal 0 -1 0
    outer loop
      vertex 8.02 0 1.5
      vertex 13 0 0
      vertex 8.64 0 1.5
    endloop
  endfacet
  facet normal 0 -1 0
    outer loop
      vertex 8.64 0 1.5
      vertex 13 0 0
      vertex 9.26 0 1.5
    endloop
  endfacet
  facet normal 0 -1 0
    outer loop
      vertex 9.26 0 1.5
      vertex 13 0 0
      vertex 9.88 0 1.5
    endloop
  endfacet
  facet normal 0 -1 0
    outer loop
      vertex 1.2 0 1
      vertex 1.82 0 1.5
      vertex 1.2 0 2.2
    endloop
  endfacet
  facet normal 0 -1 0
    outer loop
      vertex 2.44 0 1.5
      vertex 3.06 0 2.2
      vertex 2.44 0 2.2
    endloop
  endfacet
  facet normal 0 -1 -0
    outer loop
      vertex 3.06 0 2.2
      vertex 2.44 0 1.5
      vertex 3.06 0 1.5
    endloop
  endfacet
  facet normal 0 -1 0
    outer loop
      vertex 3.68 0 1.5
      vertex 4.3 0 2.2
      vertex 3.68 0 2.2
    endloop
  endfacet
  facet normal 0 -1 -0
    outer loop
      vertex 4.3 0 2.2
      vertex 3.68 0 1.5
      vertex 4.3 0 1.5
    endloop
  endfacet
  facet normal 0 -1 0
    outer loop
      vertex 4.92 0 1.5
      vertex 5.54 0 2.2
      vertex 4.92 0 2.2
    endloop
  endfacet
  facet normal 0 -1 -0
    outer loop
      vertex 5.54 0 2.2
      vertex 4.92 0 1.5
      vertex 5.54 0 1.5
    endloop
  endfacet
  facet normal 0 -1 0
    outer loop
      vertex 6.16 0 1.5
      vertex 6.78 0 2.2
      vertex 6.16 0 2.2
    endloop
  endfacet
  facet normal 0 -1 -0
    outer loop
      vertex 6.78 0 2.2
      vertex 6.16 0 1.5
      vertex 6.78 0 1.5
    endloop
  endfacet
  facet normal 0 -1 0
    outer loop
      vertex 7.4 0 1.5
      vertex 8.02 0 2.2
      vertex 7.4 0 2.2
    endloop
  endfacet
  facet normal 0 -1 -0
    outer loop
      vertex 8.02 0 2.2
      vertex 7.4 0 1.5
      vertex 8.02 0 1.5
    endloop
  endfacet
  facet normal 0 -1 0
    outer loop
      vertex 8.64 0 1.5
      vertex 9.26 0 2.2
      vertex 8.64 0 2.2
    endloop
  endfacet
  facet normal 0 -1 -0
    outer loop
      vertex 9.26 0 2.2
      vertex 8.64 0 1.5
      vertex 9.26 0 1.5
    endloop
  endfacet
  facet normal 0 -1 0
    outer loop
      vertex 9.88 0 1.5
      vertex 10.5 0 2.2
      vertex 9.88 0 2.2
    endloop
  endfacet
  facet normal 0 -1 -0
    outer loop
      vertex 10.5 0 2.2
      vertex 9.88 0 1.5
      vertex 10.5 0 1.5
    endloop
  endfacet
  facet normal 0 -1 0
    outer loop
      vertex 11.12 0 1.5
      vertex 11.74 0 2.2
      vertex 11.12 0 2.2
    endloop
  endfacet
  facet normal 0 -1 0
    outer loop
      vertex 11.12 0 1.5
      vertex 11.74 0 1
      vertex 11.74 0 2.2
    endloop
  endfacet
  facet normal 0 -1 0
    outer loop
      vertex 10.5 0 1.5
      vertex 11.74 0 1
      vertex 11.12 0 1.5
    endloop
  endfacet
  facet normal 0 -1 0
    outer loop
      vertex 0 0 0
      vertex 1.2 0 1
      vertex 0 0 1
    endloop
  endfacet
  facet normal -0 -1 -0
    outer loop
      vertex 11.74 0 1
      vertex 9.88 0 1.5
      vertex 13 0 0
    endloop
  endfacet
  facet normal 0 -1 0
    outer loop
      vertex 9.88 0 1.5
      vertex 11.74 0 1
      vertex 10.5 0 1.5
    endloop
  endfacet
  facet normal 0 -1 0
    outer loop
      vertex 11.74 0 1
      vertex 13 0 0
      vertex 13 0 1
    endloop
  endfacet
  facet normal 1 0 0
    outer loop
      vertex 11.74 19 2.82
      vertex 11.74 16 2.82
      vertex 11.74 19 2.2
    endloop
  endfacet
  facet normal 1 -0 0
    outer loop
      vertex 11.74 19 2.2
      vertex 11.74 20 1
      vertex 11.74 20 2.2
    endloop
  endfacet
  facet normal 1 0 0
    outer loop
      vertex 11.74 16 2.2
      vertex 11.74 19 2.2
      vertex 11.74 16 2.82
    endloop
  endfacet
  facet normal 1 0 0
    outer loop
      vertex 11.74 19 2.2
      vertex 11.74 16 2.2
      vertex 11.74 20 1
    endloop
  endfacet
  facet normal 1 0 0
    outer loop
      vertex 11.74 0 1
      vertex 11.74 16 2.2
      vertex 11.74 0 2.2
    endloop
  endfacet
  facet normal 1 0 0
    outer loop
      vertex 11.74 16 2.2
      vertex 11.74 0 1
      vertex 11.74 20 1
    endloop
  endfacet
  facet normal -0 0 1
    outer loop
      vertex 1.82 0.62 1.5
      vertex 2.44 0 1.5
      vertex 2.44 0.62 1.5
    endloop
  endfacet
  facet normal 0 0 1
    outer loop
      vertex 2.44 0 1.5
      vertex 1.82 0.62 1.5
      vertex 1.82 0 1.5
    endloop
  endfacet
  facet normal -0 0 1
    outer loop
      vertex 1.82 20 1.5
      vertex 2.44 1.24 1.5
      vertex 2.44 20 1.5
    endloop
  endfacet
  facet normal 0 0 1
    outer loop
      vertex 2.44 1.24 1.5
      vertex 1.82 20 1.5
      vertex 1.82 1.24 1.5
    endloop
  endfacet
  facet normal -0 0 1
    outer loop
      vertex 10.5 20 1.5
      vertex 11.12 1.24 1.5
      vertex 11.12 20 1.5
    endloop
  endfacet
  facet normal 0 0 1
    outer loop
      vertex 11.12 1.24 1.5
      vertex 10.5 20 1.5
      vertex 10.5 1.24 1.5
    endloop
  endfacet
  facet normal -0 0 1
    outer loop
      vertex 10.5 0.62 1.5
      vertex 11.12 0 1.5
      vertex 11.12 0.62 1.5
    endloop
  endfacet
  facet normal 0 0 1
    outer loop
      vertex 11.12 0 1.5
      vertex 10.5 0.62 1.5
      vertex 10.5 0 1.5
    endloop
  endfacet
  facet normal -0 0 1
    outer loop
      vertex 3.06 20 1.5
      vertex 3.68 1.24 1.5
      vertex 3.68 20 1.5
    endloop
  endfacet
  facet normal 0 0 1
    outer loop
      vertex 3.68 1.24 1.5
      vertex 3.06 20 1.5
      vertex 3.06 1.24 1.5
    endloop
  endfacet
  facet normal -0 0 1
    outer loop
      vertex 4.3 20 1.5
      vertex 4.92 1.24 1.5
      vertex 4.92 20 1.5
    endloop
  endfacet
  facet normal 0 0 1
    outer loop
      vertex 4.92 1.24 1.5
      vertex 4.3 20 1.5
      vertex 4.3 1.24 1.5
    endloop
  endfacet
  facet normal -0 0 1
    outer loop
      vertex 5.54 20 1.5
      vertex 6.16 1.24 1.5
      vertex 6.16 20 1.5
    endloop
  endfacet
  facet normal 0 0 1
    outer loop
      vertex 6.16 1.24 1.5
      vertex 5.54 20 1.5
      vertex 5.54 1.24 1.5
    endloop
  endfacet
  facet normal -0 0 1
    outer loop
      vertex 6.78 20 1.5
      vertex 7.4 1.24 1.5
      vertex 7.4 20 1.5
    endloop
  endfacet
  facet normal 0 0 1
    outer loop
      vertex 7.4 1.24 1.5
      vertex 6.78 20 1.5
      vertex 6.78 1.24 1.5
    endloop
  endfacet
  facet normal -0 0 1
    outer loop
      vertex 8.02 20 1.5
      vertex 8.64 1.24 1.5
      vertex 8.64 20 1.5
    endloop
  endfacet
  facet normal 0 0 1
    outer loop
      vertex 8.64 1.24 1.5
      vertex 8.02 20 1.5
      vertex 8.02 1.24 1.5
    endloop
  endfacet
  facet normal -0 0 1
    outer loop
      vertex 9.26 20 1.5
      vertex 9.88 1.24 1.5
      vertex 9.88 20 1.5
    endloop
  endfacet
  facet normal 0 0 1
    outer loop
      vertex 9.88 1.24 1.5
      vertex 9.26 20 1.5
      vertex 9.26 1.24 1.5
    endloop
  endfacet
  facet normal -0 0 1
    outer loop
      vertex 3.06 0.62 1.5
      vertex 3.68 0 1.5
      vertex 3.68 0.62 1.5
    endloop
  endfacet
  facet normal 0 0 1
    outer loop
      vertex 3.68 0 1.5
      vertex 3.06 0.62 1.5
      vertex 3.06 0 1.5
    endloop
  endfacet
  facet normal -0 0 1
    outer loop
      vertex 4.3 0.62 1.5
      vertex 4.92 0 1.5
      vertex 4.92 0.62 1.5
    endloop
  endfacet
  facet normal 0 0 1
    outer loop
      vertex 4.92 0 1.5
      vertex 4.3 0.62 1.5
      vertex 4.3 0 1.5
    endloop
  endfacet
  facet normal -0 0 1
    outer loop
      vertex 5.54 0.62 1.5
      vertex 6.16 0 1.5
      vertex 6.16 0.62 1.5
    endloop
  endfacet
  facet normal 0 0 1
    outer loop
      vertex 6.16 0 1.5
      vertex 5.54 0.62 1.5
      vertex 5.54 0 1.5
    endloop
  endfacet
  facet normal -0 0 1
    outer loop
      vertex 6.78 0.62 1.5
      vertex 7.4 0 1.5
      vertex 7.4 0.62 1.5
    endloop
  endfacet
  facet normal 0 0 1
    outer loop
      vertex 7.4 0 1.5
      vertex 6.78 0.62 1.5
      vertex 6.78 0 1.5
    endloop
  endfacet
  facet normal -0 0 1
    outer loop
      vertex 8.02 0.62 1.5
      vertex 8.64 0 1.5
      vertex 8.64 0.62 1.5
    endloop
  endfacet
  facet normal 0 0 1
    outer loop
      vertex 8.64 0 1.5
      vertex 8.02 0.62 1.5
      vertex 8.02 0 1.5
    endloop
  endfacet
  facet normal -0 0 1
    outer loop
      vertex 9.26 0.62 1.5
      vertex 9.88 0 1.5
      vertex 9.88 0.62 1.5
    endloop
  endfacet
  facet normal 0 0 1
    outer loop
      vertex 9.88 0 1.5
      vertex 9.26 0.62 1.5
      vertex 9.26 0 1.5
    endloop
  endfacet
  facet normal -1 0 0
    outer loop
      vertex 1.2 20 1
      vertex 1.2 19 2.2
      vertex 1.2 20 2.2
    endloop
  endfacet
  facet normal -1 0 0
    outer loop
      vertex 1.2 19 2.2
      vertex 1.2 16 2.2
      vertex 1.2 19 2.82
    endloop
  endfacet
  facet normal -1 0 0
    outer loop
      vertex 1.2 20 1
      vertex 1.2 16 2.2
      vertex 1.2 19 2.2
    endloop
  endfacet
  facet normal -1 0 0
    outer loop
      vertex 1.2 0 1
      vertex 1.2 16 2.2
      vertex 1.2 20 1
    endloop
  endfacet
  facet normal -1 -0 0
    outer loop
      vertex 1.2 16 2.2
      vertex 1.2 0 1
      vertex 1.2 0 2.2
    endloop
  endfacet
  facet normal -1 -0 0
    outer loop
      vertex 1.2 19 2.82
      vertex 1.2 16 2.2
      vertex 1.2 16 2.82
    endloop
  endfacet
  facet normal -1 0 0
    outer loop
      vertex 11.12 1.24 0
      vertex 11.12 0.62 0
      vertex 11.12 1.24 1.5
    endloop
  endfacet
  facet normal -1 0 0
    outer loop
      vertex 11.12 20 1.5
      vertex 11.12 19 2.2
      vertex 11.12 20 2.2
    endloop
  endfacet
  facet normal -1 0 0
    outer loop
      vertex 11.12 20 1.5
      vertex 11.12 16 2.2
      vertex 11.12 19 2.2
    endloop
  endfacet
  facet normal -1 0 0
    outer loop
      vertex 11.12 1.24 1.5
      vertex 11.12 16 2.2
      vertex 11.12 20 1.5
    endloop
  endfacet
  facet normal -1 0 0
    outer loop
      vertex 11.12 0.62 1.5
      vertex 11.12 1.24 1.5
      vertex 11.12 0.62 0
    endloop
  endfacet
  facet normal -1 0 0
    outer loop
      vertex 11.12 0 2.2
      vertex 11.12 1.24 1.5
      vertex 11.12 0.62 1.5
    endloop
  endfacet
  facet normal -1 0 0
    outer loop
      vertex 11.12 0 2.2
      vertex 11.12 0.62 1.5
      vertex 11.12 0 1.5
    endloop
  endfacet
  facet normal -1 0 0
    outer loop
      vertex 11.12 1.24 1.5
      vertex 11.12 0 2.2
      vertex 11.12 16 2.2
    endloop
  endfacet
  facet normal 1 -0 0
    outer loop
      vertex 1.82 19 2.2
      vertex 1.82 20 1.5
      vertex 1.82 20 2.2
    endloop
  endfacet
  facet normal 1 -0 0
    outer loop
      vertex 1.82 16 2.2
      vertex 1.82 20 1.5
      vertex 1.82 19 2.2
    endloop
  endfacet
  facet normal 1 0 0
    outer loop
      vertex 1.82 16 2.2
      vertex 1.82 1.24 1.5
      vertex 1.82 20 1.5
    endloop
  endfacet
  facet normal 1 0 0
    outer loop
      vertex 1.82 1.24 1.5
      vertex 1.82 0.62 1.5
      vertex 1.82 1.24 0
    endloop
  endfacet
  facet normal 1 -0 0
    outer loop
      vertex 1.82 0 2.2
      vertex 1.82 1.24 1.5
      vertex 1.82 16 2.2
    endloop
  endfacet
  facet normal 1 0 0
    outer loop
      vertex 1.82 1.24 1.5
      vertex 1.82 0 2.2
      vertex 1.82 0.62 1.5
    endloop
  endfacet
  facet normal 1 0 0
    outer loop
      vertex 1.82 0.62 1.5
      vertex 1.82 0 2.2
      vertex 1.82 0 1.5
    endloop
  endfacet
  facet normal 1 0 0
    outer loop
      vertex 1.82 1.24 0
      vertex 1.82 0.62 1.5
      vertex 1.82 0.62 0
    endloop
  endfacet
  facet normal 0 -1 0
    outer loop
      vertex 1.82 1.24 0
      vertex 2.44 1.24 1.5
      vertex 1.82 1.24 1.5
    endloop
  endfacet
  facet normal 0 -1 -0
    outer loop
      vertex 2.44 1.24 1.5
      vertex 1.82 1.24 0
      vertex 2.44 1.24 0
    endloop
  endfacet
  facet normal 0 -1 0
    outer loop
      vertex 10.5 1.24 0
      vertex 11.12 1.24 1.5
      vertex 10.5 1.24 1.5
    endloop
  endfacet
  facet normal 0 -1 -0
    outer loop
      vertex 11.12 1.24 1.5
      vertex 10.5 1.24 0
      vertex 11.12 1.24 0
    endloop
  endfacet
  facet normal 0 -1 0
    outer loop
      vertex 3.06 1.24 0
      vertex 3.68 1.24 1.5
      vertex 3.06 1.24 1.5
    endloop
  endfacet
  facet normal 0 -1 -0
    outer loop
      vertex 3.68 1.24 1.5
      vertex 3.06 1.24 0
      vertex 3.68 1.24 0
    endloop
  endfacet
  facet normal 0 -1 0
    outer loop
      vertex 4.3 1.24 0
      vertex 4.92 1.24 1.5
      vertex 4.3 1.24 1.5
    endloop
  endfacet
  facet normal 0 -1 -0
    outer loop
      vertex 4.92 1.24 1.5
      vertex 4.3 1.24 0
      vertex 4.92 1.24 0
    endloop
  endfacet
  facet normal 0 -1 0
    outer loop
      vertex 5.54 1.24 0
      vertex 6.16 1.24 1.5
      vertex 5.54 1.24 1.5
    endloop
  endfacet
  facet normal 0 -1 -0
    outer loop
      vertex 6.16 1.24 1.5
      vertex 5.54 1.24 0
      vertex 6.16 1.24 0
    endloop
  endfacet
  facet normal 0 -1 0
    outer loop
      vertex 6.78 1.24 0
      vertex 7.4 1.24 1.5
      vertex 6.78 1.24 1.5
    endloop
  endfacet
  facet normal 0 -1 -0
    outer loop
      vertex 7.4 1.24 1.5
      vertex 6.78 1.24 0
      vertex 7.4 1.24 0
    endloop
  endfacet
  facet normal 0 -1 0
    outer loop
      vertex 8.02 1.24 0
      vertex 8.64 1.24 1.5
      vertex 8.02 1.24 1.5
    endloop
  endfacet
  facet normal 0 -1 -0
    outer loop
      vertex 8.64 1.24 1.5
      vertex 8.02 1.24 0
      vertex 8.64 1.24 0
    endloop
  endfacet
  facet normal 0 -1 0
    outer loop
      vertex 9.26 1.24 0
      vertex 9.88 1.24 1.5
      vertex 9.26 1.24 1.5
    endloop
  endfacet
  facet normal 0 -1 -0
    outer loop
      vertex 9.88 1.24 1.5
      vertex 9.26 1.24 0
      vertex 9.88 1.24 0
    endloop
  endfacet
  facet normal 0 1 -0
    outer loop
      vertex 2.44 0.62 0
      vertex 1.82 0.62 1.5
      vertex 2.44 0.62 1.5
    endloop
  endfacet
  facet normal 0 1 0
    outer loop
      vertex 1.82 0.62 1.5
      vertex 2.44 0.62 0
      vertex 1.82 0.62 0
    endloop
  endfacet
  facet normal 0 1 -0
    outer loop
      vertex 11.12 0.62 0
      vertex 10.5 0.62 1.5
      vertex 11.12 0.62 1.5
    endloop
  endfacet
  facet normal 0 1 0
    outer loop
      vertex 10.5 0.62 1.5
      vertex 11.12 0.62 0
      vertex 10.5 0.62 0
    endloop
  endfacet
  facet normal 0 1 -0
    outer loop
      vertex 3.68 0.62 0
      vertex 3.06 0.62 1.5
      vertex 3.68 0.62 1.5
    endloop
  endfacet
  facet normal 0 1 0
    outer loop
      vertex 3.06 0.62 1.5
      vertex 3.68 0.62 0
      vertex 3.06 0.62 0
    endloop
  endfacet
  facet normal 0 1 -0
    outer loop
      vertex 4.92 0.62 0
      vertex 4.3 0.62 1.5
      vertex 4.92 0.62 1.5
    endloop
  endfacet
  facet normal 0 1 0
    outer loop
      vertex 4.3 0.62 1.5
      vertex 4.92 0.62 0
      vertex 4.3 0.62 0
    endloop
  endfacet
  facet normal 0 1 -0
    outer loop
      vertex 6.16 0.62 0
      vertex 5.54 0.62 1.5
      vertex 6.16 0.62 1.5
    endloop
  endfacet
  facet normal 0 1 0
    outer loop
      vertex 5.54 0.62 1.5
      vertex 6.16 0.62 0
      vertex 5.54 0.62 0
    endloop
  endfacet
  facet normal 0 1 -0
    outer loop
      vertex 7.4 0.62 0
      vertex 6.78 0.62 1.5
      vertex 7.4 0.62 1.5
    endloop
  endfacet
  facet normal 0 1 0
    outer loop
      vertex 6.78 0.62 1.5
      vertex 7.4 0.62 0
      vertex 6.78 0.62 0
    endloop
  endfacet
  facet normal 0 1 -0
    outer loop
      vertex 8.64 0.62 0
      vertex 8.02 0.62 1.5
      vertex 8.64 0.62 1.5
    endloop
  endfacet
  facet normal 0 1 0
    outer loop
      vertex 8.02 0.62 1.5
      vertex 8.64 0.62 0
      vertex 8.02 0.62 0
    endloop
  endfacet
  facet normal 0 1 -0
    outer loop
      vertex 9.88 0.62 0
      vertex 9.26 0.62 1.5
      vertex 9.88 0.62 1.5
    endloop
  endfacet
  facet normal 0 1 0
    outer loop
      vertex 9.26 0.62 1.5
      vertex 9.88 0.62 0
      vertex 9.26 0.62 0
    endloop
  endfacet
  facet normal -0 0 1
    outer loop
      vertex 11.12 20 2.2
      vertex 11.74 19 2.2
      vertex 11.74 20 2.2
    endloop
  endfacet
  facet normal 0 0 1
    outer loop
      vertex 11.74 19 2.2
      vertex 11.12 20 2.2
      vertex 11.12 19 2.2
    endloop
  endfacet
  facet normal -0 0 1
    outer loop
      vertex 11.12 16 2.2
      vertex 11.74 0 2.2
      vertex 11.74 16 2.2
    endloop
  endfacet
  facet normal 0 0 1
    outer loop
      vertex 11.74 0 2.2
      vertex 11.12 16 2.2
      vertex 11.12 0 2.2
    endloop
  endfacet
  facet normal -0 0 1
    outer loop
      vertex 1.2 16 2.2
      vertex 1.82 0 2.2
      vertex 1.82 16 2.2
    endloop
  endfacet
  facet normal 0 0 1
    outer loop
      vertex 1.82 0 2.2
      vertex 1.2 16 2.2
      vertex 1.2 0 2.2
    endloop
  endfacet
  facet normal -0 0 1
    outer loop
      vertex 1.2 20 2.2
      vertex 1.82 19 2.2
      vertex 1.82 20 2.2
    endloop
  endfacet
  facet normal 0 0 1
    outer loop
      vertex 1.82 19 2.2
      vertex 1.2 20 2.2
      vertex 1.2 19 2.2
    endloop
  endfacet
  facet normal -0 0 1
    outer loop
      vertex 3.68 20 2.2
      vertex 4.3 19 2.2
      vertex 4.3 20 2.2
    endloop
  endfacet
  facet normal 0 0 1
    outer loop
      vertex 4.3 19 2.2
      vertex 3.68 20 2.2
      vertex 3.68 19 2.2
    endloop
  endfacet
  facet normal -0 0 1
    outer loop
      vertex 3.68 16 2.2
      vertex 4.3 0 2.2
      vertex 4.3 16 2.2
    endloop
  endfacet
  facet normal 0 0 1
    outer loop
      vertex 4.3 0 2.2
      vertex 3.68 16 2.2
      vertex 3.68 0 2.2
    endloop
  endfacet
  facet normal -0 0 1
    outer loop
      vertex 2.44 20 2.2
      vertex 3.06 19 2.2
      vertex 3.06 20 2.2
    endloop
  endfacet
  facet normal 0 0 1
    outer loop
      vertex 3.06 19 2.2
      vertex 2.44 20 2.2
      vertex 2.44 19 2.2
    endloop
  endfacet
  facet normal -0 0 1
    outer loop
      vertex 2.44 16 2.2
      vertex 3.06 0 2.2
      vertex 3.06 16 2.2
    endloop
  endfacet
  facet normal 0 0 1
    outer loop
      vertex 3.06 0 2.2
      vertex 2.44 16 2.2
      vertex 2.44 0 2.2
    endloop
  endfacet
  facet normal -0 0 1
    outer loop
      vertex 8.64 20 2.2
      vertex 9.26 19 2.2
      vertex 9.26 20 2.2
    endloop
  endfacet
  facet normal 0 0 1
    outer loop
      vertex 9.26 19 2.2
      vertex 8.64 20 2.2
      vertex 8.64 19 2.2
    endloop
  endfacet
  facet normal -0 0 1
    outer loop
      vertex 8.64 16 2.2
      vertex 9.26 0 2.2
      vertex 9.26 16 2.2
    endloop
  endfacet
  facet normal 0 0 1
    outer loop
      vertex 9.26 0 2.2
      vertex 8.64 16 2.2
      vertex 8.64 0 2.2
    endloop
  endfacet
  facet normal -0 0 1
    outer loop
      vertex 7.4 20 2.2
      vertex 8.02 19 2.2
      vertex 8.02 20 2.2
    endloop
  endfacet
  facet normal 0 0 1
    outer loop
      vertex 8.02 19 2.2
      vertex 7.4 20 2.2
      vertex 7.4 19 2.2
    endloop
  endfacet
  facet normal -0 0 1
    outer loop
      vertex 7.4 16 2.2
      vertex 8.02 0 2.2
      vertex 8.02 16 2.2
    endloop
  endfacet
  facet normal 0 0 1
    outer loop
      vertex 8.02 0 2.2
      vertex 7.4 16 2.2
      vertex 7.4 0 2.2
    endloop
  endfacet
  facet normal -0 0 1
    outer loop
      vertex 9.88 20 2.2
      vertex 10.5 19 2.2
      vertex 10.5 20 2.2
    endloop
  endfacet
  facet normal 0 0 1
    outer loop
      vertex 10.5 19 2.2
      vertex 9.88 20 2.2
      vertex 9.88 19 2.2
    endloop
  endfacet
  facet normal -0 0 1
    outer loop
      vertex 9.88 16 2.2
      vertex 10.5 0 2.2
      vertex 10.5 16 2.2
    endloop
  endfacet
  facet normal 0 0 1
    outer loop
      vertex 10.5 0 2.2
      vertex 9.88 16 2.2
      vertex 9.88 0 2.2
    endloop
  endfacet
  facet normal -0 0 1
    outer loop
      vertex 6.16 20 2.2
      vertex 6.78 19 2.2
      vertex 6.78 20 2.2
    endloop
  endfacet
  facet normal 0 0 1
    outer loop
      vertex 6.78 19 2.2
      vertex 6.16 20 2.2
      vertex 6.16 19 2.2
    endloop
  endfacet
  facet normal -0 0 1
    outer loop
      vertex 6.16 16 2.2
      vertex 6.78 0 2.2
      vertex 6.78 16 2.2
    endloop
  endfacet
  facet normal 0 0 1
    outer loop
      vertex 6.78 0 2.2
      vertex 6.16 16 2.2
      vertex 6.16 0 2.2
    endloop
  endfacet
  facet normal -0 0 1
    outer loop
      vertex 4.92 20 2.2
      vertex 5.54 19 2.2
      vertex 5.54 20 2.2
    endloop
  endfacet
  facet normal 0 0 1
    outer loop
      vertex 5.54 19 2.2
      vertex 4.92 20 2.2
      vertex 4.92 19 2.2
    endloop
  endfacet
  facet normal -0 0 1
    outer loop
      vertex 4.92 16 2.2
      vertex 5.54 0 2.2
      vertex 5.54 16 2.2
    endloop
  endfacet
  facet normal 0 0 1
    outer loop
      vertex 5.54 0 2.2
      vertex 4.92 16 2.2
      vertex 4.92 0 2.2
    endloop
  endfacet
  facet normal 0 0 -1
    outer loop
      vertex 1.82 16 2.2
      vertex 2.44 19 2.2
      vertex 2.44 16 2.2
    endloop
  endfacet
  facet normal -0 0 -1
    outer loop
      vertex 2.44 19 2.2
      vertex 1.82 16 2.2
      vertex 1.82 19 2.2
    endloop
  endfacet
  facet normal 0 0 -1
    outer loop
      vertex 3.06 16 2.2
      vertex 3.68 19 2.2
      vertex 3.68 16 2.2
    endloop
  endfacet
  facet normal -0 0 -1
    outer loop
      vertex 3.68 19 2.2
      vertex 3.06 16 2.2
      vertex 3.06 19 2.2
    endloop
  endfacet
  facet normal 0 0 -1
    outer loop
      vertex 4.3 16 2.2
      vertex 4.92 19 2.2
      vertex 4.92 16 2.2
    endloop
  endfacet
  facet normal -0 0 -1
    outer loop
      vertex 4.92 19 2.2
      vertex 4.3 16 2.2
      vertex 4.3 19 2.2
    endloop
  endfacet
  facet normal 0 0 -1
    outer loop
      vertex 5.54 16 2.2
      vertex 6.16 19 2.2
      vertex 6.16 16 2.2
    endloop
  endfacet
  facet normal -0 0 -1
    outer loop
      vertex 6.16 19 2.2
      vertex 5.54 16 2.2
      vertex 5.54 19 2.2
    endloop
  endfacet
  facet normal 0 0 -1
    outer loop
      vertex 6.78 16 2.2
      vertex 7.4 19 2.2
      vertex 7.4 16 2.2
    endloop
  endfacet
  facet normal -0 0 -1
    outer loop
      vertex 7.4 19 2.2
      vertex 6.78 16 2.2
      vertex 6.78 19 2.2
    endloop
  endfacet
  facet normal 0 0 -1
    outer loop
      vertex 8.02 16 2.2
      vertex 8.64 19 2.2
      vertex 8.64 16 2.2
    endloop
  endfacet
  facet normal -0 0 -1
    outer loop
      vertex 8.64 19 2.2
      vertex 8.02 16 2.2
      vertex 8.02 19 2.2
    endloop
  endfacet
  facet normal 0 0 -1
    outer loop
      vertex 9.26 16 2.2
      vertex 9.88 19 2.2
      vertex 9.88 16 2.2
    endloop
  endfacet
  facet normal -0 0 -1
    outer loop
      vertex 9.88 19 2.2
      vertex 9.26 16 2.2
      vertex 9.26 19 2.2
    endloop
  endfacet
  facet normal 0 0 -1
    outer loop
      vertex 10.5 16 2.2
      vertex 11.12 19 2.2
      vertex 11.12 16 2.2
    endloop
  endfacet
  facet normal -0 0 -1
    outer loop
      vertex 11.12 19 2.2
      vertex 10.5 16 2.2
      vertex 10.5 19 2.2
    endloop
  endfacet
  facet normal 1 -0 0
    outer loop
      vertex 10.5 19 2.2
      vertex 10.5 20 1.5
      vertex 10.5 20 2.2
    endloop
  endfacet
  facet normal 1 -0 0
    outer loop
      vertex 10.5 16 2.2
      vertex 10.5 20 1.5
      vertex 10.5 19 2.2
    endloop
  endfacet
  facet normal 1 0 0
    outer loop
      vertex 10.5 16 2.2
      vertex 10.5 1.24 1.5
      vertex 10.5 20 1.5
    endloop
  endfacet
  facet normal 1 0 0
    outer loop
      vertex 10.5 1.24 1.5
      vertex 10.5 0.62 1.5
      vertex 10.5 1.24 0
    endloop
  endfacet
  facet normal 1 -0 0
    outer loop
      vertex 10.5 0 2.2
      vertex 10.5 1.24 1.5
      vertex 10.5 16 2.2
    endloop
  endfacet
  facet normal 1 0 0
    outer loop
      vertex 10.5 1.24 1.5
      vertex 10.5 0 2.2
      vertex 10.5 0.62 1.5
    endloop
  endfacet
  facet normal 1 0 0
    outer loop
      vertex 10.5 0.62 1.5
      vertex 10.5 0 2.2
      vertex 10.5 0 1.5
    endloop
  endfacet
  facet normal 1 0 0
    outer loop
      vertex 10.5 1.24 0
      vertex 10.5 0.62 1.5
      vertex 10.5 0.62 0
    endloop
  endfacet
  facet normal -1 0 0
    outer loop
      vertex 9.88 1.24 0
      vertex 9.88 0.62 0
      vertex 9.88 1.24 1.5
    endloop
  endfacet
  facet normal -1 0 0
    outer loop
      vertex 9.88 20 1.5
      vertex 9.88 19 2.2
      vertex 9.88 20 2.2
    endloop
  endfacet
  facet normal -1 0 0
    outer loop
      vertex 9.88 20 1.5
      vertex 9.88 16 2.2
      vertex 9.88 19 2.2
    endloop
  endfacet
  facet normal -1 0 0
    outer loop
      vertex 9.88 1.24 1.5
      vertex 9.88 16 2.2
      vertex 9.88 20 1.5
    endloop
  endfacet
  facet normal -1 0 0
    outer loop
      vertex 9.88 0.62 1.5
      vertex 9.88 1.24 1.5
      vertex 9.88 0.62 0
    endloop
  endfacet
  facet normal -1 0 0
    outer loop
      vertex 9.88 0 2.2
      vertex 9.88 1.24 1.5
      vertex 9.88 0.62 1.5
    endloop
  endfacet
  facet normal -1 0 0
    outer loop
      vertex 9.88 0 2.2
      vertex 9.88 0.62 1.5
      vertex 9.88 0 1.5
    endloop
  endfacet
  facet normal -1 0 0
    outer loop
      vertex 9.88 1.24 1.5
      vertex 9.88 0 2.2
      vertex 9.88 16 2.2
    endloop
  endfacet
  facet normal 1 -0 0
    outer loop
      vertex 9.26 19 2.2
      vertex 9.26 20 1.5
      vertex 9.26 20 2.2
    endloop
  endfacet
  facet normal 1 -0 0
    outer loop
      vertex 9.26 16 2.2
      vertex 9.26 20 1.5
      vertex 9.26 19 2.2
    endloop
  endfacet
  facet normal 1 0 0
    outer loop
      vertex 9.26 16 2.2
      vertex 9.26 1.24 1.5
      vertex 9.26 20 1.5
    endloop
  endfacet
  facet normal 1 0 0
    outer loop
      vertex 9.26 1.24 1.5
      vertex 9.26 0.62 1.5
      vertex 9.26 1.24 0
    endloop
  endfacet
  facet normal 1 -0 0
    outer loop
      vertex 9.26 0 2.2
      vertex 9.26 1.24 1.5
      vertex 9.26 16 2.2
    endloop
  endfacet
  facet normal 1 0 0
    outer loop
      vertex 9.26 1.24 1.5
      vertex 9.26 0 2.2
      vertex 9.26 0.62 1.5
    endloop
  endfacet
  facet normal 1 0 0
    outer loop
      vertex 9.26 0.62 1.5
      vertex 9.26 0 2.2
      vertex 9.26 0 1.5
    endloop
  endfacet
  facet normal 1 0 0
    outer loop
      vertex 9.26 1.24 0
      vertex 9.26 0.62 1.5
      vertex 9.26 0.62 0
    endloop
  endfacet
  facet normal -1 0 0
    outer loop
      vertex 8.64 1.24 0
      vertex 8.64 0.62 0
      vertex 8.64 1.24 1.5
    endloop
  endfacet
  facet normal -1 0 0
    outer loop
      vertex 8.64 20 1.5
      vertex 8.64 19 2.2
      vertex 8.64 20 2.2
    endloop
  endfacet
  facet normal -1 0 0
    outer loop
      vertex 8.64 20 1.5
      vertex 8.64 16 2.2
      vertex 8.64 19 2.2
    endloop
  endfacet
  facet normal -1 0 0
    outer loop
      vertex 8.64 1.24 1.5
      vertex 8.64 16 2.2
      vertex 8.64 20 1.5
    endloop
  endfacet
  facet normal -1 0 0
    outer loop
      vertex 8.64 0.62 1.5
      vertex 8.64 1.24 1.5
      vertex 8.64 0.62 0
    endloop
  endfacet
  facet normal -1 0 0
    outer loop
      vertex 8.64 0 2.2
      vertex 8.64 1.24 1.5
      vertex 8.64 0.62 1.5
    endloop
  endfacet
  facet normal -1 0 0
    outer loop
      vertex 8.64 0 2.2
      vertex 8.64 0.62 1.5
      vertex 8.64 0 1.5
    endloop
  endfacet
  facet normal -1 0 0
    outer loop
      vertex 8.64 1.24 1.5
      vertex 8.64 0 2.2
      vertex 8.64 16 2.2
    endloop
  endfacet
  facet normal 1 -0 0
    outer loop
      vertex 8.02 19 2.2
      vertex 8.02 20 1.5
      vertex 8.02 20 2.2
    endloop
  endfacet
  facet normal 1 -0 0
    outer loop
      vertex 8.02 16 2.2
      vertex 8.02 20 1.5
      vertex 8.02 19 2.2
    endloop
  endfacet
  facet normal 1 0 0
    outer loop
      vertex 8.02 16 2.2
      vertex 8.02 1.24 1.5
      vertex 8.02 20 1.5
    endloop
  endfacet
  facet normal 1 0 0
    outer loop
      vertex 8.02 1.24 1.5
      vertex 8.02 0.62 1.5
      vertex 8.02 1.24 0
    endloop
  endfacet
  facet normal 1 -0 0
    outer loop
      vertex 8.02 0 2.2
      vertex 8.02 1.24 1.5
      vertex 8.02 16 2.2
    endloop
  endfacet
  facet normal 1 0 0
    outer loop
      vertex 8.02 1.24 1.5
      vertex 8.02 0 2.2
      vertex 8.02 0.62 1.5
    endloop
  endfacet
  facet normal 1 0 0
    outer loop
      vertex 8.02 0.62 1.5
      vertex 8.02 0 2.2
      vertex 8.02 0 1.5
    endloop
  endfacet
  facet normal 1 0 0
    outer loop
      vertex 8.02 1.24 0
      vertex 8.02 0.62 1.5
      vertex 8.02 0.62 0
    endloop
  endfacet
  facet normal -1 0 0
    outer loop
      vertex 7.4 1.24 0
      vertex 7.4 0.62 0
      vertex 7.4 1.24 1.5
    endloop
  endfacet
  facet normal -1 0 0
    outer loop
      vertex 7.4 20 1.5
      vertex 7.4 19 2.2
      vertex 7.4 20 2.2
    endloop
  endfacet
  facet normal -1 0 0
    outer loop
      vertex 7.4 20 1.5
      vertex 7.4 16 2.2
      vertex 7.4 19 2.2
    endloop
  endfacet
  facet normal -1 0 0
    outer loop
      vertex 7.4 1.24 1.5
      vertex 7.4 16 2.2
      vertex 7.4 20 1.5
    endloop
  endfacet
  facet normal -1 0 0
    outer loop
      vertex 7.4 0.62 1.5
      vertex 7.4 1.24 1.5
      vertex 7.4 0.62 0
    endloop
  endfacet
  facet normal -1 0 0
    outer loop
      vertex 7.4 0 2.2
      vertex 7.4 1.24 1.5
      vertex 7.4 0.62 1.5
    endloop
  endfacet
  facet normal -1 0 0
    outer loop
      vertex 7.4 0 2.2
      vertex 7.4 0.62 1.5
      vertex 7.4 0 1.5
    endloop
  endfacet
  facet normal -1 0 0
    outer loop
      vertex 7.4 1.24 1.5
      vertex 7.4 0 2.2
      vertex 7.4 16 2.2
    endloop
  endfacet
  facet normal 1 -0 0
    outer loop
      vertex 6.78 19 2.2
      vertex 6.78 20 1.5
      vertex 6.78 20 2.2
    endloop
  endfacet
  facet normal 1 -0 0
    outer loop
      vertex 6.78 16 2.2
      vertex 6.78 20 1.5
      vertex 6.78 19 2.2
    endloop
  endfacet
  facet normal 1 0 0
    outer loop
      vertex 6.78 16 2.2
      vertex 6.78 1.24 1.5
      vertex 6.78 20 1.5
    endloop
  endfacet
  facet normal 1 0 0
    outer loop
      vertex 6.78 1.24 1.5
      vertex 6.78 0.62 1.5
      vertex 6.78 1.24 0
    endloop
  endfacet
  facet normal 1 -0 0
    outer loop
      vertex 6.78 0 2.2
      vertex 6.78 1.24 1.5
      vertex 6.78 16 2.2
    endloop
  endfacet
  facet normal 1 0 0
    outer loop
      vertex 6.78 1.24 1.5
      vertex 6.78 0 2.2
      vertex 6.78 0.62 1.5
    endloop
  endfacet
  facet normal 1 0 0
    outer loop
      vertex 6.78 0.62 1.5
      vertex 6.78 0 2.2
      vertex 6.78 0 1.5
    endloop
  endfacet
  facet normal 1 0 0
    outer loop
      vertex 6.78 1.24 0
      vertex 6.78 0.62 1.5
      vertex 6.78 0.62 0
    endloop
  endfacet
  facet normal -1 0 0
    outer loop
      vertex 6.16 1.24 0
      vertex 6.16 0.62 0
      vertex 6.16 1.24 1.5
    endloop
  endfacet
  facet normal -1 0 0
    outer loop
      vertex 6.16 20 1.5
      vertex 6.16 19 2.2
      vertex 6.16 20 2.2
    endloop
  endfacet
  facet normal -1 0 0
    outer loop
      vertex 6.16 20 1.5
      vertex 6.16 16 2.2
      vertex 6.16 19 2.2
    endloop
  endfacet
  facet normal -1 0 0
    outer loop
      vertex 6.16 1.24 1.5
      vertex 6.16 16 2.2
      vertex 6.16 20 1.5
    endloop
  endfacet
  facet normal -1 0 0
    outer loop
      vertex 6.16 0.62 1.5
      vertex 6.16 1.24 1.5
      vertex 6.16 0.62 0
    endloop
  endfacet
  facet normal -1 0 0
    outer loop
      vertex 6.16 0 2.2
      vertex 6.16 1.24 1.5
      vertex 6.16 0.62 1.5
    endloop
  endfacet
  facet normal -1 0 0
    outer loop
      vertex 6.16 0 2.2
      vertex 6.16 0.62 1.5
      vertex 6.16 0 1.5
    endloop
  endfacet
  facet normal -1 0 0
    outer loop
      vertex 6.16 1.24 1.5
      vertex 6.16 0 2.2
      vertex 6.16 16 2.2
    endloop
  endfacet
  facet normal 1 -0 0
    outer loop
      vertex 5.54 19 2.2
      vertex 5.54 20 1.5
      vertex 5.54 20 2.2
    endloop
  endfacet
  facet normal 1 -0 0
    outer loop
      vertex 5.54 16 2.2
      vertex 5.54 20 1.5
      vertex 5.54 19 2.2
    endloop
  endfacet
  facet normal 1 0 0
    outer loop
      vertex 5.54 16 2.2
      vertex 5.54 1.24 1.5
      vertex 5.54 20 1.5
    endloop
  endfacet
  facet normal 1 0 0
    outer loop
      vertex 5.54 1.24 1.5
      vertex 5.54 0.62 1.5
      vertex 5.54 1.24 0
    endloop
  endfacet
  facet normal 1 -0 0
    outer loop
      vertex 5.54 0 2.2
      vertex 5.54 1.24 1.5
      vertex 5.54 16 2.2
    endloop
  endfacet
  facet normal 1 0 0
    outer loop
      vertex 5.54 1.24 1.5
      vertex 5.54 0 2.2
      vertex 5.54 0.62 1.5
    endloop
  endfacet
  facet normal 1 0 0
    outer loop
      vertex 5.54 0.62 1.5
      vertex 5.54 0 2.2
      vertex 5.54 0 1.5
    endloop
  endfacet
  facet normal 1 0 0
    outer loop
      vertex 5.54 1.24 0
      vertex 5.54 0.62 1.5
      vertex 5.54 0.62 0
    endloop
  endfacet
  facet normal -1 0 0
    outer loop
      vertex 4.92 1.24 0
      vertex 4.92 0.62 0
      vertex 4.92 1.24 1.5
    endloop
  endfacet
  facet normal -1 0 0
    outer loop
      vertex 4.92 20 1.5
      vertex 4.92 19 2.2
      vertex 4.92 20 2.2
    endloop
  endfacet
  facet normal -1 0 0
    outer loop
      vertex 4.92 20 1.5
      vertex 4.92 16 2.2
      vertex 4.92 19 2.2
    endloop
  endfacet
  facet normal -1 0 0
    outer loop
      vertex 4.92 1.24 1.5
      vertex 4.92 16 2.2
      vertex 4.92 20 1.5
    endloop
  endfacet
  facet normal -1 0 0
    outer loop
      vertex 4.92 0.62 1.5
      vertex 4.92 1.24 1.5
      vertex 4.92 0.62 0
    endloop
  endfacet
  facet normal -1 0 0
    outer loop
      vertex 4.92 0 2.2
      vertex 4.92 1.24 1.5
      vertex 4.92 0.62 1.5
    endloop
  endfacet
  facet normal -1 0 0
    outer loop
      vertex 4.92 0 2.2
      vertex 4.92 0.62 1.5
      vertex 4.92 0 1.5
    endloop
  endfacet
  facet normal -1 0 0
    outer loop
      vertex 4.92 1.24 1.5
      vertex 4.92 0 2.2
      vertex 4.92 16 2.2
    endloop
  endfacet
  facet normal 1 -0 0
    outer loop
      vertex 4.3 19 2.2
      vertex 4.3 20 1.5
      vertex 4.3 20 2.2
    endloop
  endfacet
  facet normal 1 -0 0
    outer loop
      vertex 4.3 16 2.2
      vertex 4.3 20 1.5
      vertex 4.3 19 2.2
    endloop
  endfacet
  facet normal 1 0 0
    outer loop
      vertex 4.3 16 2.2
      vertex 4.3 1.24 1.5
      vertex 4.3 20 1.5
    endloop
  endfacet
  facet normal 1 0 0
    outer loop
      vertex 4.3 1.24 1.5
      vertex 4.3 0.62 1.5
      vertex 4.3 1.24 0
    endloop
  endfacet
  facet normal 1 -0 0
    outer loop
      vertex 4.3 0 2.2
      vertex 4.3 1.24 1.5
      vertex 4.3 16 2.2
    endloop
  endfacet
  facet normal 1 0 0
    outer loop
      vertex 4.3 1.24 1.5
      vertex 4.3 0 2.2
      vertex 4.3 0.62 1.5
    endloop
  endfacet
  facet normal 1 0 0
    outer loop
      vertex 4.3 0.62 1.5
      vertex 4.3 0 2.2
      vertex 4.3 0 1.5
    endloop
  endfacet
  facet normal 1 0 0
    outer loop
      vertex 4.3 1.24 0
      vertex 4.3 0.62 1.5
      vertex 4.3 0.62 0
    endloop
  endfacet
  facet normal -1 0 0
    outer loop
      vertex 3.68 1.24 0
      vertex 3.68 0.62 0
      vertex 3.68 1.24 1.5
    endloop
  endfacet
  facet normal -1 0 0
    outer loop
      vertex 3.68 20 1.5
      vertex 3.68 19 2.2
      vertex 3.68 20 2.2
    endloop
  endfacet
  facet normal -1 0 0
    outer loop
      vertex 3.68 20 1.5
      vertex 3.68 16 2.2
      vertex 3.68 19 2.2
    endloop
  endfacet
  facet normal -1 0 0
    outer loop
      vertex 3.68 1.24 1.5
      vertex 3.68 16 2.2
      vertex 3.68 20 1.5
    endloop
  endfacet
  facet normal -1 0 0
    outer loop
      vertex 3.68 0.62 1.5
      vertex 3.68 1.24 1.5
      vertex 3.68 0.62 0
    endloop
  endfacet
  facet normal -1 0 0
    outer loop
      vertex 3.68 0 2.2
      vertex 3.68 1.24 1.5
      vertex 3.68 0.62 1.5
    endloop
  endfacet
  facet normal -1 0 0
    outer loop
      vertex 3.68 0 2.2
      vertex 3.68 0.62 1.5
      vertex 3.68 0 1.5
    endloop
  endfacet
  facet normal -1 0 0
    outer loop
      vertex 3.68 1.24 1.5
      vertex 3.68 0 2.2
      vertex 3.68 16 2.2
    endloop
  endfacet
  facet normal 1 -0 0
    outer loop
      vertex 3.06 19 2.2
      vertex 3.06 20 1.5
      vertex 3.06 20 2.2
    endloop
  endfacet
  facet normal 1 -0 0
    outer loop
      vertex 3.06 16 2.2
      vertex 3.06 20 1.5
      vertex 3.06 19 2.2
    endloop
  endfacet
  facet normal 1 0 0
    outer loop
      vertex 3.06 16 2.2
      vertex 3.06 1.24 1.5
      vertex 3.06 20 1.5
    endloop
  endfacet
  facet normal 1 0 0
    outer loop
      vertex 3.06 1.24 1.5
      vertex 3.06 0.62 1.5
      vertex 3.06 1.24 0
    endloop
  endfacet
  facet normal 1 -0 0
    outer loop
      vertex 3.06 0 2.2
      vertex 3.06 1.24 1.5
      vertex 3.06 16 2.2
    endloop
  endfacet
  facet normal 1 0 0
    outer loop
      vertex 3.06 1.24 1.5
      vertex 3.06 0 2.2
      vertex 3.06 0.62 1.5
    endloop
  endfacet
  facet normal 1 0 0
    outer loop
      vertex 3.06 0.62 1.5
      vertex 3.06 0 2.2
      vertex 3.06 0 1.5
    endloop
  endfacet
  facet normal 1 0 0
    outer loop
      vertex 3.06 1.24 0
      vertex 3.06 0.62 1.5
      vertex 3.06 0.62 0
    endloop
  endfacet
  facet normal -1 0 0
    outer loop
      vertex 2.44 1.24 0
      vertex 2.44 0.62 0
      vertex 2.44 1.24 1.5
    endloop
  endfacet
  facet normal -1 0 0
    outer loop
      vertex 2.44 20 1.5
      vertex 2.44 19 2.2
      vertex 2.44 20 2.2
    endloop
  endfacet
  facet normal -1 0 0
    outer loop
      vertex 2.44 20 1.5
      vertex 2.44 16 2.2
      vertex 2.44 19 2.2
    endloop
  endfacet
  facet normal -1 0 0
    outer loop
      vertex 2.44 1.24 1.5
      vertex 2.44 16 2.2
      vertex 2.44 20 1.5
    endloop
  endfacet
  facet normal -1 0 0
    outer loop
      vertex 2.44 0.62 1.5
      vertex 2.44 1.24 1.5
      vertex 2.44 0.62 0
    endloop
  endfacet
  facet normal -1 0 0
    outer loop
      vertex 2.44 0 2.2
      vertex 2.44 1.24 1.5
      vertex 2.44 0.62 1.5
    endloop
  endfacet
  facet normal -1 0 0
    outer loop
      vertex 2.44 0 2.2
      vertex 2.44 0.62 1.5
      vertex 2.44 0 1.5
    endloop
  endfacet
  facet normal -1 0 0
    outer loop
      vertex 2.44 1.24 1.5
      vertex 2.44 0 2.2
      vertex 2.44 16 2.2
    endloop
  endfacet
  facet normal -0 0 1
    outer loop
      vertex 1.2 19 2.82
      vertex 11.74 16 2.82
      vertex 11.74 19 2.82
    endloop
  endfacet
  facet normal 0 0 1
    outer loop
      vertex 11.74 16 2.82
      vertex 1.2 19 2.82
      vertex 1.2 16 2.82
    endloop
  endfacet
  facet normal 0 1 0
    outer loop
      vertex 11.12 19 2.2
      vertex 11.74 19 2.82
      vertex 11.74 19 2.2
    endloop
  endfacet
  facet normal 0 1 0
    outer loop
      vertex 10.5 19 2.2
      vertex 11.74 19 2.82
      vertex 11.12 19 2.2
    endloop
  endfacet
  facet normal 0 1 0
    outer loop
      vertex 9.88 19 2.2
      vertex 11.74 19 2.82
      vertex 10.5 19 2.2
    endloop
  endfacet
  facet normal 0 1 0
    outer loop
      vertex 9.26 19 2.2
      vertex 11.74 19 2.82
      vertex 9.88 19 2.2
    endloop
  endfacet
  facet normal 0 1 0
    outer loop
      vertex 8.64 19 2.2
      vertex 11.74 19 2.82
      vertex 9.26 19 2.2
    endloop
  endfacet
  facet normal 0 1 0
    outer loop
      vertex 8.02 19 2.2
      vertex 11.74 19 2.82
      vertex 8.64 19 2.2
    endloop
  endfacet
  facet normal 0 1 0
    outer loop
      vertex 7.4 19 2.2
      vertex 11.74 19 2.82
      vertex 8.02 19 2.2
    endloop
  endfacet
  facet normal 0 1 0
    outer loop
      vertex 6.78 19 2.2
      vertex 11.74 19 2.82
      vertex 7.4 19 2.2
    endloop
  endfacet
  facet normal 0 1 0
    outer loop
      vertex 11.74 19 2.82
      vertex 6.78 19 2.2
      vertex 1.2 19 2.82
    endloop
  endfacet
  facet normal 0 1 -0
    outer loop
      vertex 6.16 19 2.2
      vertex 1.2 19 2.82
      vertex 6.78 19 2.2
    endloop
  endfacet
  facet normal 0 1 -0
    outer loop
      vertex 5.54 19 2.2
      vertex 1.2 19 2.82
      vertex 6.16 19 2.2
    endloop
  endfacet
  facet normal 0 1 -0
    outer loop
      vertex 4.92 19 2.2
      vertex 1.2 19 2.82
      vertex 5.54 19 2.2
    endloop
  endfacet
  facet normal 0 1 -0
    outer loop
      vertex 4.3 19 2.2
      vertex 1.2 19 2.82
      vertex 4.92 19 2.2
    endloop
  endfacet
  facet normal 0 1 -0
    outer loop
      vertex 3.68 19 2.2
      vertex 1.2 19 2.82
      vertex 4.3 19 2.2
    endloop
  endfacet
  facet normal 0 1 -0
    outer loop
      vertex 3.06 19 2.2
      vertex 1.2 19 2.82
      vertex 3.68 19 2.2
    endloop
  endfacet
  facet normal 0 1 -0
    outer loop
      vertex 2.44 19 2.2
      vertex 1.2 19 2.82
      vertex 3.06 19 2.2
    endloop
  endfacet
  facet normal 0 1 -0
    outer loop
      vertex 1.82 19 2.2
      vertex 1.2 19 2.82
      vertex 2.44 19 2.2
    endloop
  endfacet
  facet normal 0 1 0
    outer loop
      vertex 1.2 19 2.82
      vertex 1.82 19 2.2
      vertex 1.2 19 2.2
    endloop
  endfacet
  facet normal 0 -1 0
    outer loop
      vertex 1.82 16 2.2
      vertex 1.2 16 2.82
      vertex 1.2 16 2.2
    endloop
  endfacet
  facet normal 0 -1 0
    outer loop
      vertex 2.44 16 2.2
      vertex 1.2 16 2.82
      vertex 1.82 16 2.2
    endloop
  endfacet
  facet normal 0 -1 0
    outer loop
      vertex 3.06 16 2.2
      vertex 1.2 16 2.82
      vertex 2.44 16 2.2
    endloop
  endfacet
  facet normal 0 -1 0
    outer loop
      vertex 3.68 16 2.2
      vertex 1.2 16 2.82
      vertex 3.06 16 2.2
    endloop
  endfacet
  facet normal 0 -1 0
    outer loop
      vertex 4.3 16 2.2
      vertex 1.2 16 2.82
      vertex 3.68 16 2.2
    endloop
  endfacet
  facet normal 0 -1 0
    outer loop
      vertex 4.92 16 2.2
      vertex 1.2 16 2.82
      vertex 4.3 16 2.2
    endloop
  endfacet
  facet normal 0 -1 0
    outer loop
      vertex 5.54 16 2.2
      vertex 1.2 16 2.82
      vertex 4.92 16 2.2
    endloop
  endfacet
  facet normal 0 -1 0
    outer loop
      vertex 6.16 16 2.2
      vertex 1.2 16 2.82
      vertex 5.54 16 2.2
    endloop
  endfacet
  facet normal 0 -1 0
    outer loop
      vertex 1.2 16 2.82
      vertex 6.16 16 2.2
      vertex 11.74 16 2.82
    endloop
  endfacet
  facet normal 0 -1 0
    outer loop
      vertex 6.78 16 2.2
      vertex 11.74 16 2.82
      vertex 6.16 16 2.2
    endloop
  endfacet
  facet normal 0 -1 0
    outer loop
      vertex 7.4 16 2.2
      vertex 11.74 16 2.82
      vertex 6.78 16 2.2
    endloop
  endfacet
  facet normal 0 -1 0
    outer loop
      vertex 8.02 16 2.2
      vertex 11.74 16 2.82
      vertex 7.4 16 2.2
    endloop
  endfacet
  facet normal 0 -1 0
    outer loop
      vertex 8.64 16 2.2
      vertex 11.74 16 2.82
      vertex 8.02 16 2.2
    endloop
  endfacet
  facet normal 0 -1 0
    outer loop
      vertex 9.26 16 2.2
      vertex 11.74 16 2.82
      vertex 8.64 16 2.2
    endloop
  endfacet
  facet normal 0 -1 0
    outer loop
      vertex 9.88 16 2.2
      vertex 11.74 16 2.82
      vertex 9.26 16 2.2
    endloop
  endfacet
  facet normal 0 -1 0
    outer loop
      vertex 10.5 16 2.2
      vertex 11.74 16 2.82
      vertex 9.88 16 2.2
    endloop
  endfacet
  facet normal 0 -1 0
    outer loop
      vertex 11.12 16 2.2
      vertex 11.74 16 2.82
      vertex 10.5 16 2.2
    endloop
  endfacet
  facet normal 0 -1 -0
    outer loop
      vertex 11.74 16 2.82
      vertex 11.12 16 2.2
      vertex 11.74 16 2.2
    endloop
  endfacet
endsolid OpenSCAD_Model
